<?xml version="1.0" encoding="UTF-8" standalone="no"?>
<!-- Created with Inkscape (http://www.inkscape.org/) -->
<svg
   xmlns:dc="http://purl.org/dc/elements/1.1/"
   xmlns:cc="http://creativecommons.org/ns#"
   xmlns:rdf="http://www.w3.org/1999/02/22-rdf-syntax-ns#"
   xmlns:svg="http://www.w3.org/2000/svg"
   xmlns="http://www.w3.org/2000/svg"
   xmlns:xlink="http://www.w3.org/1999/xlink"
   xmlns:sodipodi="http://sodipodi.sourceforge.net/DTD/sodipodi-0.dtd"
   xmlns:inkscape="http://www.inkscape.org/namespaces/inkscape"
   width="512"
   height="512"
   id="svg9129"
   sodipodi:version="0.32"
   inkscape:version="0.46"
   version="1.0"
   sodipodi:docname="fireorigin.svg"
   inkscape:output_extension="org.inkscape.output.svg.inkscape">
  <defs
     id="defs9131">
    <inkscape:perspective
       sodipodi:type="inkscape:persp3d"
       inkscape:vp_x="0 : 256 : 1"
       inkscape:vp_y="0 : 1000 : 0"
       inkscape:vp_z="512 : 256 : 1"
       inkscape:persp3d-origin="256 : 170.66667 : 1"
       id="perspective26" />
    <linearGradient
       id="linearGradient3266">
      <stop
         style="stop-color:#000000;stop-opacity:1;"
         offset="0"
         id="stop3268" />
      <stop
         id="stop3278"
         offset="1"
         style="stop-color:#ffffff;stop-opacity:0.74901962;" />
    </linearGradient>
    <linearGradient
       id="linearGradient4926">
      <stop
         style="stop-color:#ffffff;stop-opacity:1;"
         offset="0"
         id="stop4928" />
      <stop
         id="stop3291"
         offset="0.52083331"
         style="stop-color:#ffffff;stop-opacity:0.49803922;" />
      <stop
         style="stop-color:#ffffff;stop-opacity:0;"
         offset="1"
         id="stop4930" />
    </linearGradient>
    <linearGradient
       inkscape:collect="always"
       xlink:href="#linearGradient3266"
       id="linearGradient2411"
       gradientUnits="userSpaceOnUse"
       gradientTransform="matrix(0.6093149,0.8081048,0.7411601,-0.6634746,31.144139,476.47363)"
       x1="-167.14285"
       y1="330.57144"
       x2="164.28571"
       y2="330.57144" />
    <linearGradient
       inkscape:collect="always"
       xlink:href="#linearGradient3266"
       id="linearGradient2414"
       gradientUnits="userSpaceOnUse"
       gradientTransform="matrix(0.6515761,0.7930891,0.792566,-0.6511463,-5.1447614,460.81594)"
       x1="-167.14285"
       y1="330.57144"
       x2="164.28571"
       y2="330.57144" />
    <linearGradient
       inkscape:collect="always"
       xlink:href="#linearGradient3266"
       id="linearGradient2417"
       gradientUnits="userSpaceOnUse"
       gradientTransform="matrix(0.6371063,0.8139645,0.7749652,-0.6682855,-12.838341,476.55949)"
       x1="-167.14285"
       y1="330.57144"
       x2="164.28571"
       y2="330.57144" />
    <linearGradient
       inkscape:collect="always"
       xlink:href="#linearGradient3266"
       id="linearGradient2420"
       gradientUnits="userSpaceOnUse"
       gradientTransform="matrix(0.6475903,0.7346333,0.7877177,-0.6031526,-3.9957914,476.48656)"
       x1="-167.14285"
       y1="330.57144"
       x2="164.28571"
       y2="330.57144" />
    <linearGradient
       inkscape:collect="always"
       xlink:href="#linearGradient4926"
       id="linearGradient2423"
       gradientUnits="userSpaceOnUse"
       gradientTransform="matrix(1.4581983,2.3534856,3.1490603,-1.5043316,-1492.4952,-535.62916)"
       x1="391.42859"
       y1="291.64789"
       x2="530.01733"
       y2="296.68948" />
    <linearGradient
       inkscape:collect="always"
       xlink:href="#linearGradient4926"
       id="linearGradient2400"
       gradientUnits="userSpaceOnUse"
       gradientTransform="matrix(1.4581983,2.3534856,3.1490603,-1.5043316,-1492.4952,-535.62916)"
       x1="391.42859"
       y1="291.64789"
       x2="530.01733"
       y2="296.68948" />
  </defs>
  <sodipodi:namedview
     id="base"
     pagecolor="#ffffff"
     bordercolor="#666666"
     borderopacity="1.0"
     gridtolerance="10000"
     guidetolerance="10"
     objecttolerance="10"
     inkscape:pageopacity="0.0"
     inkscape:pageshadow="2"
     inkscape:zoom="0.35"
     inkscape:cx="-244.65099"
     inkscape:cy="340.97214"
     inkscape:document-units="px"
     inkscape:current-layer="layer1"
     showgrid="false"
     width="512px"
     inkscape:window-width="1280"
     inkscape:window-height="725"
     inkscape:window-x="0"
     inkscape:window-y="25"
     inkscape:snap-global="false"
     showborder="false">
    <inkscape:grid
       type="xygrid"
       id="grid9160"
       visible="true"
       enabled="true" />
  </sodipodi:namedview>
  <metadata
     id="metadata9134">
    <rdf:RDF>
      <cc:Work
         rdf:about="">
        <dc:format>image/svg+xml</dc:format>
        <dc:type
           rdf:resource="http://purl.org/dc/dcmitype/StillImage" />
      </cc:Work>
    </rdf:RDF>
  </metadata>
  <g
     inkscape:label="Layer 1"
     inkscape:groupmode="layer"
     id="layer1">
    <path
       style="fill:#ff0000;fill-opacity:1;stroke:#000000;stroke-width:20;stroke-linecap:butt;stroke-linejoin:round;stroke-miterlimit:4;stroke-dasharray:none;stroke-dashoffset:0;stroke-opacity:1"
       d="M 255.59375,18.9375 C 356.60472,17.384407 453.36093,88.000065 482.11716,184.94962 C 511.10809,273.03976 481.36579,376.11616 410.51358,435.76285 C 339.77166,498.13002 230.76489,511.04723 147.49727,466.67675 C 64.938783,425.49469 12.439638,332.67947 19.431289,240.7198 C 24.492259,145.98965 92.208361,58.509654 182.9614,30.515625 C 206.383,22.945952 230.97417,18.975606 255.59375,18.9375 z M 256.25,68.1875 C 214.95358,67.956294 173.76902,81.966115 141.1875,107.34375 C 179.45833,145.61458 217.72917,183.88542 256,222.15625 C 294.26042,183.89583 332.52083,145.63542 370.78125,107.375 C 338.30844,82.121278 297.36777,68.21058 256.25,68.1875 z M 107.3125,141.15625 C 55.485073,206.17255 55.399184,305.80231 107.40625,370.75 C 145.65625,332.5 183.90625,294.25 222.15625,256 C 183.875,217.71875 145.59375,179.4375 107.3125,141.15625 z M 404.59375,141.25 C 366.34375,179.5 328.09375,217.75 289.84375,256 C 328.125,294.28125 366.40625,332.5625 404.6875,370.84375 C 456.55664,305.26805 456.67255,206.7958 404.59375,141.25 z M 256,289.84375 C 217.73958,328.10417 179.47917,366.36458 141.21875,404.625 C 206.19907,456.48721 305.84671,456.703 370.8125,404.6875 C 332.54167,366.40625 294.27083,328.125 256,289.84375 z"
       id="path3253" />
    <path
       style="fill:#666666;fill-opacity:1;stroke:#666666;stroke-width:1;stroke-linecap:butt;stroke-linejoin:miter;stroke-miterlimit:4;stroke-dasharray:none;stroke-dashoffset:0;stroke-opacity:1"
       d="M 170.70889,390.11267 C 217.21512,424.68363 284.30694,426.86032 332.67818,394.79465 C 337.95032,382.70413 361.27367,403.49268 348.66924,406.63484 C 291.62829,444.9923 211.65754,443.60201 156.07535,403.11781 C 160.9532,398.78276 165.83105,394.44772 170.70889,390.11267 z"
       id="path3333" />
    <path
       style="fill:#666666;fill-opacity:1;stroke:#666666;stroke-width:1;stroke-linecap:butt;stroke-linejoin:miter;stroke-miterlimit:4;stroke-dasharray:none;stroke-dashoffset:0;stroke-opacity:1"
       d="M 109.61795,149.37617 C 117.47649,156.31971 132.56106,161.91273 118.80759,172.31037 C 86.27549,223.23548 85.424626,293.83774 122.05911,342.94471 C 112.94601,354.68521 103.94099,359.77155 98.584423,340.9893 C 63.819437,281.95665 69.29467,204.30833 109.61795,149.37617 z"
       id="path3329" />
    <path
       style="fill:#666666;fill-opacity:1;stroke:#666666;stroke-width:1;stroke-linecap:butt;stroke-linejoin:miter;stroke-miterlimit:4;stroke-dasharray:none;stroke-dashoffset:0;stroke-opacity:1"
       d="M 256.61859,74.426353 C 292.32555,74.357513 328.02006,85.956572 356.40427,107.72371 C 348.63939,112.67678 341.82608,129.5551 332.82907,117.88224 C 284.20562,83.805898 215.16007,87.260341 168.44525,123.09613 C 162.71828,124.58266 145.49691,104.45453 162.32288,102.39852 C 190.06883,83.985886 223.33142,74.182083 256.61859,74.426353 z"
       id="path3325" />
    <path
       style="fill:#666666;fill-opacity:1;stroke:#666666;stroke-width:1;stroke-linecap:butt;stroke-linejoin:miter;stroke-miterlimit:4;stroke-dasharray:none;stroke-dashoffset:0;stroke-opacity:1"
       d="M 403.37997,154.62788 C 445.83718,213.45822 445.79995,298.26316 403.46115,357.13997 C 394.46705,348.72531 385.72511,340.6475 398.29173,330.18306 C 427.86137,280.96417 424.17387,215.3703 390.38326,169.15561 C 394.7155,164.31303 399.04774,159.47046 403.37997,154.62788 z"
       id="path3293" />
  </g>
</svg>
