<?xml version="1.0" encoding="UTF-8" standalone="no"?>
<!-- Created with Inkscape (http://www.inkscape.org/) -->
<svg
   xmlns:dc="http://purl.org/dc/elements/1.1/"
   xmlns:cc="http://creativecommons.org/ns#"
   xmlns:rdf="http://www.w3.org/1999/02/22-rdf-syntax-ns#"
   xmlns:svg="http://www.w3.org/2000/svg"
   xmlns="http://www.w3.org/2000/svg"
   xmlns:sodipodi="http://sodipodi.sourceforge.net/DTD/sodipodi-0.dtd"
   xmlns:inkscape="http://www.inkscape.org/namespaces/inkscape"
   width="512"
   height="512"
   id="svg9129"
   sodipodi:version="0.32"
   inkscape:version="0.46"
   version="1.0"
   sodipodi:docname="unsafe.svg"
   inkscape:output_extension="org.inkscape.output.svg.inkscape"
   style="display:inline">
  <defs
     id="defs9131">
    <inkscape:perspective
       sodipodi:type="inkscape:persp3d"
       inkscape:vp_x="0 : 256 : 1"
       inkscape:vp_y="0 : 1000 : 0"
       inkscape:vp_z="512 : 256 : 1"
       inkscape:persp3d-origin="256 : 170.66667 : 1"
       id="perspective9" />
  </defs>
  <sodipodi:namedview
     id="base"
     pagecolor="#ffffff"
     bordercolor="#666666"
     borderopacity="1.0"
     gridtolerance="10000"
     guidetolerance="10"
     objecttolerance="10"
     inkscape:pageopacity="0.0"
     inkscape:pageshadow="2"
     inkscape:zoom="0.49497475"
     inkscape:cx="96.8197"
     inkscape:cy="190.03438"
     inkscape:document-units="px"
     inkscape:current-layer="layer1"
     showgrid="false"
     width="512px"
     inkscape:window-width="872"
     inkscape:window-height="721"
     inkscape:window-x="398"
     inkscape:window-y="25"
     inkscape:snap-global="true"
     showborder="false"
     showguides="true"
     inkscape:guide-bbox="true">
    <inkscape:grid
       type="xygrid"
       id="grid2480"
       visible="true"
       enabled="true"
       dotted="false"
       spacingx="2px"
       spacingy="2px"
       empspacing="8" />
  </sodipodi:namedview>
  <metadata
     id="metadata9134">
    <rdf:RDF>
      <cc:Work
         rdf:about="">
        <dc:format>image/svg+xml</dc:format>
        <dc:type
           rdf:resource="http://purl.org/dc/dcmitype/StillImage" />
      </cc:Work>
    </rdf:RDF>
  </metadata>
  <g
     inkscape:label="Layer 1"
     inkscape:groupmode="layer"
     id="layer1"
     style="display:inline">
    <path
       style="fill:#ff5e00;fill-opacity:1;stroke:#000000;stroke-width:20;stroke-linecap:butt;stroke-linejoin:miter;stroke-miterlimit:4;stroke-dasharray:none;stroke-dashoffset:0;stroke-opacity:1;display:inline"
       d="M 11.21875,11.21875 C 11.21875,174.40625 11.21875,337.59375 11.21875,500.78125 C 174.40625,500.78125 337.59375,500.78125 500.78125,500.78125 C 500.78125,337.59375 500.78125,174.40625 500.78125,11.21875 C 337.59375,11.21875 174.40625,11.21875 11.21875,11.21875 z M 152.21875,93.875 C 222.48958,93.875 292.76042,93.875 363.03125,93.875 C 327.66667,128.77083 292.30208,163.66667 256.9375,198.5625 C 222.03125,163.66667 187.125,128.77083 152.21875,93.875 z M 420.3125,150.375 C 420.3125,220.89583 420.3125,291.41667 420.3125,361.9375 C 384.8125,326.44792 349.3125,290.95833 313.8125,255.46875 C 349.3125,220.4375 384.8125,185.40625 420.3125,150.375 z M 91.6875,162.625 C 125.07292,196.01042 158.45833,229.39583 191.84375,262.78125 C 158.45833,295.72917 125.07292,328.67708 91.6875,361.625 C 91.6875,295.29167 91.6875,228.95833 91.6875,162.625 z M 248.75,319.6875 C 281.5625,352.5 314.375,385.3125 347.1875,418.125 C 281.11458,418.125 215.04167,418.125 148.96875,418.125 C 182.22917,385.3125 215.48958,352.5 248.75,319.6875 z"
       id="rect2405" />
  </g>
</svg>
