<?xml version="1.0" encoding="UTF-8" standalone="no"?>
<!-- Created with Inkscape (http://www.inkscape.org/) -->
<svg
   xmlns:dc="http://purl.org/dc/elements/1.1/"
   xmlns:cc="http://creativecommons.org/ns#"
   xmlns:rdf="http://www.w3.org/1999/02/22-rdf-syntax-ns#"
   xmlns:svg="http://www.w3.org/2000/svg"
   xmlns="http://www.w3.org/2000/svg"
   xmlns:xlink="http://www.w3.org/1999/xlink"
   xmlns:sodipodi="http://sodipodi.sourceforge.net/DTD/sodipodi-0.dtd"
   xmlns:inkscape="http://www.inkscape.org/namespaces/inkscape"
   width="512"
   height="512"
   id="svg9129"
   sodipodi:version="0.32"
   inkscape:version="0.46"
   version="1.0"
   sodipodi:docname="warning.svg"
   inkscape:output_extension="org.inkscape.output.svg.inkscape"
   style="display:inline">
  <defs
     id="defs9131">
    <inkscape:perspective
       sodipodi:type="inkscape:persp3d"
       inkscape:vp_x="0 : 256 : 1"
       inkscape:vp_y="0 : 1000 : 0"
       inkscape:vp_z="512 : 256 : 1"
       inkscape:persp3d-origin="256 : 170.66667 : 1"
       id="perspective21" />
    <linearGradient
       id="linearGradient4926">
      <stop
         style="stop-color:#ffffff;stop-opacity:1;"
         offset="0"
         id="stop4928" />
      <stop
         id="stop3682"
         offset="0.79166669"
         style="stop-color:#ffffff;stop-opacity:0.49803922;" />
      <stop
         style="stop-color:#ffffff;stop-opacity:0;"
         offset="1"
         id="stop4930" />
    </linearGradient>
    <filter
       inkscape:collect="always"
       id="filter4180">
      <feGaussianBlur
         inkscape:collect="always"
         stdDeviation="1.3477185"
         id="feGaussianBlur4182" />
    </filter>
    <linearGradient
       inkscape:collect="always"
       xlink:href="#linearGradient4926"
       id="linearGradient2407"
       gradientUnits="userSpaceOnUse"
       gradientTransform="matrix(1.3753127,1.0986519,2.0207171,-2.498758,-1228.3631,454.71269)"
       x1="391.42859"
       y1="291.64789"
       x2="570"
       y2="291.64789" />
    <linearGradient
       inkscape:collect="always"
       xlink:href="#linearGradient4926"
       id="linearGradient2399"
       gradientUnits="userSpaceOnUse"
       gradientTransform="matrix(1.3753127,1.0986519,2.0207171,-2.498758,-1228.3631,454.71269)"
       x1="391.42859"
       y1="291.64789"
       x2="570"
       y2="291.64789" />
  </defs>
  <sodipodi:namedview
     id="base"
     pagecolor="#ffffff"
     bordercolor="#666666"
     borderopacity="1.0"
     gridtolerance="10000"
     guidetolerance="10"
     objecttolerance="10"
     inkscape:pageopacity="0.0"
     inkscape:pageshadow="2"
     inkscape:zoom="0.5"
     inkscape:cx="-100.98935"
     inkscape:cy="322.55318"
     inkscape:document-units="px"
     inkscape:current-layer="layer1"
     showgrid="false"
     width="512px"
     inkscape:window-width="1124"
     inkscape:window-height="703"
     inkscape:window-x="33"
     inkscape:window-y="43"
     inkscape:snap-global="false"
     showborder="false">
    <inkscape:grid
       type="xygrid"
       id="grid9160"
       visible="true"
       enabled="true"
       spacingx="2px"
       spacingy="2px"
       empspacing="8" />
  </sodipodi:namedview>
  <metadata
     id="metadata9134">
    <rdf:RDF>
      <cc:Work
         rdf:about="">
        <dc:format>image/svg+xml</dc:format>
        <dc:type
           rdf:resource="http://purl.org/dc/dcmitype/StillImage" />
      </cc:Work>
    </rdf:RDF>
  </metadata>
  <g
     inkscape:label="Layer 1"
     inkscape:groupmode="layer"
     id="layer1"
     style="display:inline">
    <path
       style="fill:#000000;fill-opacity:1;stroke:#000000;stroke-width:46.20000076;stroke-linecap:round;stroke-linejoin:round;stroke-miterlimit:4;stroke-dasharray:none;stroke-dashoffset:0;stroke-opacity:1"
       d="M 450.97205,422.15466 C 432.65988,433.50566 408.5545,425.12739 387.68368,427.70546 C 281.16633,427.92097 174.64667,428.25105 68.130878,427.44251 C 45.721685,413.06694 74.610549,390.86552 80.479014,374.14035 C 135.80473,278.43702 190.38547,182.29862 246.74598,87.197073 C 270.3096,75.382049 275.02783,111.07979 286.49018,124.48388 C 341.88887,220.76396 398.21162,316.51578 452.61978,413.3632 L 452.64612,417.9213 L 450.97204,422.15466 L 450.97205,422.15466 z"
       id="path7060" />
    <path
       style="fill:#ff0000;fill-opacity:1;stroke:#ff0000;stroke-width:31.20000076;stroke-linecap:round;stroke-linejoin:round;stroke-miterlimit:4;stroke-dasharray:none;stroke-dashoffset:0;stroke-opacity:1"
       d="M 442.01575,418.59982 C 318.10769,418.92492 194.19916,418.6603 70.290898,418.75868 C 71.403601,403.05462 86.918633,387.78483 93.679517,372.24839 C 147.13186,279.66621 200.58422,187.08403 254.03657,94.501853 C 267.08161,103.37199 272.54241,124.39663 282.61644,138.0352 C 336.05782,230.61552 389.51042,323.18937 442.9703,415.75901 L 443.03905,417.36519 L 442.01575,418.59982 L 442.01575,418.59982 z"
       id="path4738" />
    <path
       style="fill:#ffffff;fill-opacity:1;stroke:#ffffff;stroke-width:17.51903343;stroke-linecap:round;stroke-linejoin:round;stroke-miterlimit:4;stroke-dasharray:none;stroke-dashoffset:0;stroke-opacity:1"
       d="M 256.12863,159.83678 C 212.82445,234.84178 169.52028,309.8468 126.21614,384.85184 C 212.73872,384.80231 299.2613,384.7528 385.78387,384.70331 C 342.56544,309.74781 299.34703,234.7923 256.12863,159.83678 z"
       id="path7046" />
    <path
       style="font-size:62.70707321px;font-style:normal;font-variant:normal;font-weight:normal;font-stretch:normal;opacity:0.55648068;fill:#000000;fill-opacity:1;stroke:none;stroke-width:1px;stroke-linecap:butt;stroke-linejoin:miter;stroke-opacity:1;filter:url(#filter4180);font-family:Sans;-inkscape-font-specification:Sans"
       d="M 249.15826,211.94328 C 228.06225,208.56077 227.8979,231.6014 231.74077,246.06242 C 235.13865,271.41063 238.53654,296.75884 241.93442,322.10706 C 248.426,321.33217 259.30556,325.58604 257.33794,315.11663 C 261.01012,285.50704 266.22454,256.03214 268.77696,226.32398 C 269.76059,214.90896 258.35211,211.32195 249.15827,211.94328 L 249.15826,211.94328 z M 249.15826,383.34564 C 284.93575,383.81629 267.60494,324.06525 237.13072,344.7855 C 220.89142,355.40048 228.60085,384.949 249.15827,383.34564 L 249.15826,383.34564 z"
       id="path3950"
       transform="matrix(-1,0,0,1,512,0)" />
    <path
       style="font-size:62.70707321px;font-style:normal;font-variant:normal;font-weight:normal;font-stretch:normal;fill:#000000;fill-opacity:1;stroke:none;stroke-width:1px;stroke-linecap:butt;stroke-linejoin:miter;stroke-opacity:1;font-family:Sans;-inkscape-font-specification:Sans"
       d="M 255.22769,206.5838 C 276.3237,203.20128 276.48806,226.24192 272.64519,240.70294 C 269.24731,266.05116 265.84942,291.39937 262.45154,316.74759 C 255.95996,315.9727 245.08041,320.22657 247.04803,309.75716 C 243.37585,280.14757 238.16141,250.67266 235.609,220.9645 C 234.62537,209.54948 246.03385,205.96247 255.22769,206.5838 z M 255.22769,377.98615 C 219.4502,378.45681 236.78103,318.70576 267.25524,339.42603 C 283.49454,350.04101 275.78509,379.58952 255.22769,377.98616"
       id="path7081" />
  </g>
</svg>
